<?xml version="1.0" encoding="UTF-8" standalone="no"?>
<!-- Created with Inkscape (http://www.inkscape.org/) -->

<svg
   width="31.858mm"
   height="31.858mm"
   viewBox="0 0 31.858 31.858"
   version="1.1"
   id="svg5"
   xml:space="preserve"
   xmlns="http://www.w3.org/2000/svg"
   xmlns:svg="http://www.w3.org/2000/svg"><defs
     id="defs2" /><g
     id="layer1"
     transform="translate(-72.884049,-44.528966)"><g
       id="layer1-9"
       transform="translate(31.779941,-0.01687592)"><g
         aria-label="RP HL"
         id="text743"
         style="font-size:50.8px;line-height:1.25;letter-spacing:-3.39725px;stroke-width:0.264583"
         transform="matrix(1.0000017,0,0,0.49719101,-7.0962706e-5,22.39805)"><path
           d="m 45.676109,63.494242 v 12.8524 h -4.572 v -31.8008 h 10.414 q 4.7244,0 4.7244,4.4704 v 9.9568 q 0,3.8608 -3.4036,4.4196 l 5.0292,12.954 h -4.9276 l -4.7752,-12.8524 z m 0,-15.24 v 11.5824 h 4.4704 q 0.9144,0 1.2192,-0.254 0.3048,-0.3048 0.3048,-1.2192 v -8.636 q 0,-0.9144 -0.3048,-1.1684 -0.3048,-0.3048 -1.2192,-0.3048 z"
           style="font-family:Teko;-inkscape-font-specification:Teko"
           id="path747" /><path
           d="m 57.823654,44.545842 h 10.414 q 4.7244,0 4.7244,4.4704 v 10.5664 q 0,4.4704 -4.7244,4.4704 h -5.842 v 12.2936 h -4.572 z m 10.5664,14.3256 v -9.144 q 0,-0.9144 -0.3048,-1.1684 -0.3048,-0.3048 -1.2192,-0.3048 h -4.4704 v 12.1412 h 4.4704 q 0.9144,0 1.2192,-0.3048 0.3048,-0.3048 0.3048,-1.2192 z"
           style="font-family:Teko;-inkscape-font-specification:Teko"
           id="path749" /><path
           d="m 52.432509,76.821022 h 4.572 v 31.800798 h -4.572 V 94.651822 h -6.7564 v 13.969998 h -4.572 V 76.821022 h 4.572 v 14.1224 h 6.7564 z"
           style="font-family:Teko;-inkscape-font-specification:Teko"
           id="path751" /><path
           d="m 63.46245,104.91342 h 7.874 v 3.7084 h -12.446 V 76.821022 h 4.572 z"
           style="font-family:Teko;-inkscape-font-specification:Teko"
           id="path753" /></g></g></g></svg>
